{"title":"The Host 2013 CAMRip XviD AC3 - TODE","uid":8341070,"size":735153344,"categoryP":"video","categoryS":"movies","magnet":"?xt=urn:btih:e861dc73e8a5c0139c561082f13976fe0bc3af06&amp;dn=The+Host+2013+CAMRip+XviD+AC3+-+TODE&amp;tr=udp%3A%2F%2Ftracker.openbittorrent.com%3A80&amp;tr=udp%3A%2F%2Fopen.demonii.com%3A1337&amp;tr=udp%3A%2F%2Ftracker.coppersurfer.tk%3A6969&amp;tr=udp%3A%2F%2Fexodus.desync.com%3A6969","seeders":1,"leechers":0,"uploader":"xxxlavalxxx","files":2,"time":1365098363,"description":"\n &lt;a href=&quot;\nhttp://www.imdb.com/title/tt1517260/&quot; rel=&quot;nofollow&quot; target=&quot;_NEW&quot;&gt;\nhttp://www.imdb.com/title/tt1517260/&lt;/a&gt;\n\n\nPlot: When an unseen enemy threatens mankind by taking over their bodies and erasing their memories, Melanie will risk everything to protect the people she cares most about, proving that love can conquer all in a dangerous new world. \n\n\n\nDirector:\n Andrew Niccol \n\nWriters:\n Stephenie Meyer (novel), Andrew Niccol (screenplay) \n\nStars:\n Saoirse Ronan, Max Irons, Jake Abel \n\nGenres:\n  Action |  Adventure |  Romance |  Sci-Fi |  Thriller \n\nCountry:\n USA \n\nLanguage:\n English \n\n\n\n\nFormat                                   : AVI\nFormat/Info                              : Audio Video Interleave\nFile size                                : 693 MiB\nDuration                                 : 1h 51mn\nOverall bit rate                         : 866 Kbps\nWriting application                      : Lavf54.59.103\n\nVideo\nID                                       : 0\nFormat                                   : MPEG-4 Visual\nFormat profile                           : Simple@L3\nFormat settings, BVOP                    : No\nFormat settings, QPel                    : No\nFormat settings, GMC                     : No warppoints\nFormat settings, Matrix                  : Default (H.263)\nCodec ID                                 : XVID\nCodec ID/Hint                            : XviD\nDuration                                 : 1h 51mn\nBit rate                                 : 791 Kbps\nWidth                                    : 640 pixels\nHeight                                   : 288 pixels\nDisplay aspect ratio                     : 2.118\nFrame rate                               : 25.000 fps\nColor space                              : YUV\nChroma subsampling                       : 4:2:0\nBit depth                                : 8 bits\nScan type                                : Progressive\nCompression mode                         : Lossy\nBits/(Pixel*Frame)                       : 0.172\nStream size                              : 633 MiB (91%)\nWriting library                          : XviD 64\n\nAudio\nID                                       : 1\nFormat                                   : AC-3\nFormat/Info                              : Audio Coding 3\nMode extension                           : CM (complete main)\nFormat settings, Endianness              : Big\nCodec ID                                 : 2000\nDuration                                 : 1h 51mn\nBit rate mode                            : Constant\nBit rate                                 : 64.0 Kbps\nChannel(s)                               : 2 channels\nChannel positions                        : Front: L R\nSampling rate                            : 48.0 KHz\nBit depth                                : 16 bits\nCompression mode                         : Lossy\nStream size                              : 51.2 MiB (7%)\nAlignment                                : Aligned on interleaves\nInterleave, duration                     : 32 ms (0.80 video frame)\nTitle                                    : audio-eng\n\n\n\n\n\n &lt;a href=&quot;\nhttp://bayimg.com/kALgmaAEf&quot; rel=&quot;nofollow&quot; target=&quot;_NEW&quot;&gt;\nhttp://bayimg.com/kALgmaAEf&lt;/a&gt; &lt;a href=&quot;\nhttp://bayimg.com/lalgaaaEF&quot; rel=&quot;nofollow&quot; target=&quot;_NEW&quot;&gt;\nhttp://bayimg.com/lalgaaaEF&lt;/a&gt; &lt;a href=&quot;\nhttp://bayimg.com/kaLgOaAef&quot; rel=&quot;nofollow&quot; target=&quot;_NEW&quot;&gt;\nhttp://bayimg.com/kaLgOaAef&lt;/a&gt; &lt;a href=&quot;\nhttp://bayimg.com/KALGPaAEF&quot; rel=&quot;nofollow&quot; target=&quot;_NEW&quot;&gt;\nhttp://bayimg.com/KALGPaAEF&lt;/a&gt; &lt;a href=&quot;\nhttp://bayimg.com/laLgcAaEF&quot; rel=&quot;nofollow&quot; target=&quot;_NEW&quot;&gt;\nhttp://bayimg.com/laLgcAaEF&lt;/a&gt;\n","torrent":{"xt":"urn:btih:e861dc73e8a5c0139c561082f13976fe0bc3af06","amp;dn":"The+Host+2013+CAMRip+XviD+AC3+-+TODE","amp;tr":["udp%3A%2F%2Ftracker.openbittorrent.com%3A80","udp%3A%2F%2Fopen.demonii.com%3A1337","udp%3A%2F%2Ftracker.coppersurfer.tk%3A6969","udp%3A%2F%2Fexodus.desync.com%3A6969"],"infoHash":"e861dc73e8a5c0139c561082f13976fe0bc3af06","infoHashBuffer":{"type":"Buffer","data":[232,97,220,115,232,165,192,19,156,86,16,130,241,57,118,254,11,195,175,6]},"announce":[],"urlList":[]}}